<svg width="37" height="41" viewBox="0 0 37 41" fill="none" xmlns="http://www.w3.org/2000/svg">
<path d="M20.9269 4.53381C12.4845 1.81014 4.55399 2.86304 3.21407 6.88658C2.30113 9.62696 4.68173 13.0379 8.96055 15.7958C9.83596 9.90205 12.4551 5.6456 15.7388 5.49971C19.9765 5.31162 23.739 12.0413 24.2277 20.5999C29.1255 20.7722 32.8987 19.4116 33.7857 16.7494C35.1266 12.7268 29.3694 7.25748 20.9269 4.53381Z" fill="#2A3362"/>
<path d="M24.2464 20.8387C24.241 20.7165 24.2338 20.5943 24.2276 20.473C23.7389 11.9144 19.9774 5.18478 15.7387 5.37285C12.455 5.51875 9.83594 9.77432 8.96053 15.6691C8.68986 17.4909 8.58624 19.4684 8.68003 21.5303C9.08022 30.2629 12.8892 37.1869 17.1876 36.9962C21.4861 36.8054 24.6466 29.5713 24.2464 20.8387Z" fill="#FF4500"/>
<path d="M15.7371 5.37285C12.4534 5.51875 9.83431 9.77432 8.9589 15.6691C10.9616 16.9592 13.3789 18.1071 16.0704 18.9754C18.9261 19.8964 21.7221 20.3851 24.2251 20.473C23.7364 11.9144 19.9757 5.18478 15.7371 5.37285Z" fill="#009E3A"/>
</svg>
