<svg width="24" height="18" viewBox="0 0 24 18" fill="none" xmlns="http://www.w3.org/2000/svg">
<path d="M21.1875 5.25781C21.15 5.16406 21.1106 5.07031 21.0703 4.97656C20.4654 3.58159 19.4865 2.38109 18.2419 1.50781H20.25C20.4489 1.50781 20.6397 1.42879 20.7803 1.28814C20.921 1.14749 21 0.956725 21 0.757812C21 0.5589 20.921 0.368134 20.7803 0.227482C20.6397 0.0868299 20.4489 0.0078125 20.25 0.0078125H10.5C8.42634 0.0104455 6.42951 0.792833 4.90601 2.19962C3.38252 3.6064 2.4438 5.53468 2.27625 7.60156C1.6284 7.76261 1.05277 8.13513 0.640489 8.66017C0.228203 9.1852 0.00281392 9.83275 0 10.5003C0 10.6992 0.0790176 10.89 0.21967 11.0306C0.360322 11.1713 0.551088 11.2503 0.75 11.2503C0.948912 11.2503 1.13968 11.1713 1.28033 11.0306C1.42098 10.89 1.5 10.6992 1.5 10.5003C1.50017 10.2268 1.57512 9.95858 1.71673 9.7246C1.85834 9.49062 2.06122 9.29982 2.30344 9.17281C2.49012 10.8555 3.19176 12.4395 4.3125 13.7084L5.49 17.0047C5.5941 17.2962 5.78586 17.5485 6.03898 17.7267C6.29209 17.905 6.59416 18.0005 6.90375 18.0003H8.09625C8.40568 18.0003 8.70754 17.9047 8.96047 17.7264C9.2134 17.5482 9.40502 17.2961 9.50906 17.0047L9.68906 16.5003H15.0609L15.2409 17.0047C15.345 17.2961 15.5366 17.5482 15.7895 17.7264C16.0425 17.9047 16.3443 18.0003 16.6537 18.0003H17.8463C18.1557 18.0003 18.4575 17.9047 18.7105 17.7264C18.9634 17.5482 19.155 17.2961 19.2591 17.0047L20.7787 12.7503H21C21.5967 12.7503 22.169 12.5133 22.591 12.0913C23.0129 11.6693 23.25 11.097 23.25 10.5003V7.50031C23.2501 6.93598 23.0381 6.39222 22.6561 5.97685C22.274 5.56148 21.7499 5.30484 21.1875 5.25781ZM14.25 3.75031H10.5C10.3011 3.75031 10.1103 3.67129 9.96967 3.53064C9.82902 3.38999 9.75 3.19922 9.75 3.00031C9.75 2.8014 9.82902 2.61063 9.96967 2.46998C10.1103 2.32933 10.3011 2.25031 10.5 2.25031H14.25C14.4489 2.25031 14.6397 2.32933 14.7803 2.46998C14.921 2.61063 15 2.8014 15 3.00031C15 3.19922 14.921 3.38999 14.7803 3.53064C14.6397 3.67129 14.4489 3.75031 14.25 3.75031ZM16.875 9.00031C16.6525 9.00031 16.435 8.93433 16.25 8.81072C16.065 8.6871 15.9208 8.5114 15.8356 8.30583C15.7505 8.10026 15.7282 7.87406 15.7716 7.65584C15.815 7.43761 15.9222 7.23715 16.0795 7.07982C16.2368 6.92248 16.4373 6.81534 16.6555 6.77193C16.8738 6.72852 17.1 6.7508 17.3055 6.83595C17.5111 6.9211 17.6868 7.06529 17.8104 7.2503C17.934 7.4353 18 7.65281 18 7.87531C18 8.17368 17.8815 8.45983 17.6705 8.67081C17.4595 8.88179 17.1734 9.00031 16.875 9.00031Z" fill="black"/>
</svg>
