<svg width="18" height="10" viewBox="0 0 18 10" fill="none" xmlns="http://www.w3.org/2000/svg">
<path fill-rule="evenodd" clip-rule="evenodd" d="M9.53009 9.28C9.38947 9.42045 9.19884 9.49934 9.00009 9.49934C8.80134 9.49934 8.61072 9.42045 8.47009 9.28L0.970091 1.78C0.837611 1.63783 0.765487 1.44978 0.768916 1.25548C0.772344 1.06118 0.851056 0.875792 0.988469 0.738379C1.12588 0.600966 1.31127 0.522254 1.50557 0.518826C1.69987 0.515398 1.88792 0.587521 2.03009 0.720001L9.00009 7.69L15.9701 0.720001C16.0388 0.646314 16.1216 0.587212 16.2136 0.54622C16.3056 0.505228 16.4049 0.483186 16.5056 0.481409C16.6063 0.479633 16.7063 0.498157 16.7997 0.535878C16.8931 0.573599 16.9779 0.629744 17.0491 0.700962C17.1203 0.772181 17.1765 0.857015 17.2142 0.950403C17.2519 1.04379 17.2705 1.14382 17.2687 1.24452C17.2669 1.34523 17.2449 1.44454 17.2039 1.53654C17.1629 1.62854 17.1038 1.71134 17.0301 1.78L9.53009 9.28Z" fill="black"/>
</svg>
