<svg width="14" height="14" viewBox="0 0 14 14" fill="none" xmlns="http://www.w3.org/2000/svg">
<path fill-rule="evenodd" clip-rule="evenodd" d="M0.46934 0.470001C0.609965 0.32955 0.800589 0.250661 0.99934 0.250661C1.19809 0.250661 1.38871 0.32955 1.52934 0.470001L6.99934 5.94L12.4693 0.470001C12.538 0.396314 12.6208 0.337212 12.7128 0.29622C12.8048 0.255228 12.9041 0.233186 13.0048 0.231409C13.1055 0.229633 13.2055 0.248157 13.2989 0.285878C13.3923 0.323599 13.4772 0.379744 13.5484 0.450962C13.6196 0.522181 13.6757 0.607015 13.7135 0.700403C13.7512 0.793791 13.7697 0.893821 13.7679 0.994523C13.7662 1.09523 13.7441 1.19454 13.7031 1.28654C13.6621 1.37854 13.603 1.46134 13.5293 1.53L8.05934 7L13.5293 12.47C13.603 12.5387 13.6621 12.6215 13.7031 12.7135C13.7441 12.8055 13.7662 12.9048 13.7679 13.0055C13.7697 13.1062 13.7512 13.2062 13.7135 13.2996C13.6757 13.393 13.6196 13.4778 13.5484 13.549C13.4772 13.6203 13.3923 13.6764 13.2989 13.7141C13.2055 13.7518 13.1055 13.7704 13.0048 13.7686C12.9041 13.7668 12.8048 13.7448 12.7128 13.7038C12.6208 13.6628 12.538 13.6037 12.4693 13.53L6.99934 8.06L1.52934 13.53C1.38717 13.6625 1.19912 13.7346 1.00482 13.7312C0.810516 13.7277 0.625131 13.649 0.487718 13.5116C0.350305 13.3742 0.271593 13.1888 0.268165 12.9945C0.264737 12.8002 0.33686 12.6122 0.46934 12.47L5.93934 7L0.46934 1.53C0.328889 1.38938 0.25 1.19875 0.25 1C0.25 0.80125 0.328889 0.610626 0.46934 0.470001Z" fill="black"/>
</svg>
