<svg width="18" height="18" viewBox="0 0 18 18" fill="none" xmlns="http://www.w3.org/2000/svg">
<path d="M7 9.25H1C0.864213 9.25 0.75 9.13579 0.75 9V1C0.75 0.864214 0.864214 0.75 1 0.75H7C7.13579 0.75 7.25 0.864213 7.25 1V9C7.25 9.13579 7.13579 9.25 7 9.25ZM7 17.25H1C0.864214 17.25 0.75 17.1358 0.75 17V13C0.75 12.8642 0.864213 12.75 1 12.75H7C7.13579 12.75 7.25 12.8642 7.25 13V17C7.25 17.1358 7.13579 17.25 7 17.25ZM17 17.25H11C10.8642 17.25 10.75 17.1358 10.75 17V9C10.75 8.86421 10.8642 8.75 11 8.75H17C17.1358 8.75 17.25 8.86421 17.25 9V17C17.25 17.1358 17.1358 17.25 17 17.25ZM10.75 5V1C10.75 0.864213 10.8642 0.75 11 0.75H17C17.1358 0.75 17.25 0.864214 17.25 1V5C17.25 5.13579 17.1358 5.25 17 5.25H11C10.8642 5.25 10.75 5.13579 10.75 5Z" stroke="#0A0D1D" stroke-width="1.5"/>
</svg>
