<svg width="17" height="17" viewBox="0 0 17 17" fill="none" xmlns="http://www.w3.org/2000/svg">
<g clip-path="url(#clip0_3528_1302)">
<path d="M8.2 10.4342C8.74204 10.4342 9.26187 10.2189 9.64515 9.83558C10.0284 9.4523 10.2438 8.93247 10.2438 8.39043C10.2438 7.84839 10.0284 7.32856 9.64515 6.94528C9.26187 6.562 8.74204 6.34668 8.2 6.34668C7.65796 6.34668 7.13813 6.562 6.75485 6.94528C6.37157 7.32856 6.15625 7.84839 6.15625 8.39043C6.15625 8.93247 6.37157 9.4523 6.75485 9.83558C7.13813 10.2189 7.65796 10.4342 8.2 10.4342Z" fill="#51575D"/>
<path fill-rule="evenodd" clip-rule="evenodd" d="M0.925994 8.01311C1.93969 4.96724 4.81253 2.76953 8.20038 2.76953C11.5862 2.76953 14.4577 4.9652 15.4727 8.00834C15.5545 8.25496 15.5545 8.52064 15.4727 8.76658C14.4597 11.8124 11.5862 14.0102 8.19902 14.0102C4.81321 14.0102 1.94106 11.8145 0.926676 8.77134C0.844754 8.52524 0.844754 8.25922 0.926676 8.01311H0.925994ZM11.7763 8.38984C11.7763 9.33841 11.3994 10.2481 10.7287 10.9189C10.058 11.5896 9.14826 11.9664 8.1997 11.9664C7.25114 11.9664 6.34142 11.5896 5.67069 10.9189C4.99995 10.2481 4.62314 9.33841 4.62314 8.38984C4.62314 7.44128 4.99995 6.53157 5.67069 5.86083C6.34142 5.1901 7.25114 4.81328 8.1997 4.81328C9.14826 4.81328 10.058 5.1901 10.7287 5.86083C11.3994 6.53157 11.7763 7.44128 11.7763 8.38984Z" fill="#51575D"/>
</g>
<defs>
<clipPath id="clip0_3528_1302">
<rect width="16.35" height="16.35" fill="white" transform="translate(0.0253906 0.214844)"/>
</clipPath>
</defs>
</svg>
