<svg width="24" height="20" viewBox="0 0 24 20" fill="none" xmlns="http://www.w3.org/2000/svg">
<path d="M4.25959 8.14701C3.98453 10.2526 3.82064 12.3712 3.76859 14.494C6.64739 15.6965 9.40377 17.1733 11.9996 18.904C14.5957 17.1733 17.3524 15.6965 20.2316 14.494C20.1795 12.3712 20.0156 10.2526 19.7406 8.14701M19.7406 8.14701C20.6156 7.85301 21.5026 7.58101 22.3986 7.33301C19.1352 5.04526 15.6516 3.0889 11.9996 1.49301C8.34758 3.08924 4.86398 5.04593 1.60059 7.33401C2.49386 7.58064 3.38019 7.85174 4.25859 8.14701C6.92721 9.04422 9.51649 10.1621 11.9996 11.489C14.4823 10.1621 17.0723 9.04421 19.7406 8.14701ZM6.74959 13C6.9485 13 7.13926 12.921 7.27992 12.7803C7.42057 12.6397 7.49959 12.4489 7.49959 12.25C7.49959 12.0511 7.42057 11.8603 7.27992 11.7197C7.13926 11.579 6.9485 11.5 6.74959 11.5C6.55067 11.5 6.35991 11.579 6.21926 11.7197C6.0786 11.8603 5.99959 12.0511 5.99959 12.25C5.99959 12.4489 6.0786 12.6397 6.21926 12.7803C6.35991 12.921 6.55067 13 6.74959 13ZM6.74959 13V9.32501C8.44632 8.27035 10.1989 7.30828 11.9996 6.44301M4.99259 17.993C5.55056 17.4364 5.99302 16.775 6.29455 16.0469C6.59608 15.3187 6.75072 14.5381 6.74959 13.75V12.25" stroke="#606569" stroke-width="1.5" stroke-linecap="round" stroke-linejoin="round"/>
</svg>
