<svg width="22" height="22" viewBox="0 0 22 22" fill="none" xmlns="http://www.w3.org/2000/svg">
<path fill-rule="evenodd" clip-rule="evenodd" d="M7.99946 3.5C8.16242 3.50003 8.32094 3.55315 8.45103 3.6513C8.58112 3.74945 8.6757 3.8873 8.72046 4.044L9.53346 6.89C9.70851 7.50292 10.0369 8.0611 10.4876 8.51183C10.9384 8.96255 11.4965 9.29095 12.1095 9.466L14.9555 10.279C15.1121 10.3239 15.2498 10.4185 15.3478 10.5486C15.4459 10.6786 15.4989 10.8371 15.4989 11C15.4989 11.1629 15.4459 11.3214 15.3478 11.4514C15.2498 11.5815 15.1121 11.6761 14.9555 11.721L12.1095 12.534C11.4965 12.7091 10.9384 13.0374 10.4876 13.4882C10.0369 13.9389 9.70851 14.4971 9.53346 15.11L8.72046 17.956C8.6756 18.1126 8.58098 18.2503 8.4509 18.3484C8.32082 18.4464 8.16235 18.4995 7.99946 18.4995C7.83657 18.4995 7.6781 18.4464 7.54802 18.3484C7.41794 18.2503 7.32332 18.1126 7.27846 17.956L6.46546 15.11C6.29041 14.4971 5.96201 13.9389 5.51129 13.4882C5.06056 13.0374 4.50238 12.7091 3.88946 12.534L1.04346 11.721C0.886864 11.6761 0.749131 11.5815 0.651082 11.4514C0.553033 11.3214 0.5 11.1629 0.5 11C0.5 10.8371 0.553033 10.6786 0.651082 10.5486C0.749131 10.4185 0.886864 10.3239 1.04346 10.279L3.88946 9.466C4.50238 9.29095 5.06056 8.96255 5.51129 8.51183C5.96201 8.0611 6.29041 7.50292 6.46546 6.89L7.27846 4.044C7.32322 3.8873 7.4178 3.74945 7.54789 3.6513C7.67798 3.55315 7.8365 3.50003 7.99946 3.5ZM16.9995 0.5C17.1668 0.499907 17.3293 0.555764 17.4612 0.658686C17.5931 0.761609 17.6869 0.905686 17.7275 1.068L17.9855 2.104C18.2215 3.044 18.9555 3.778 19.8955 4.014L20.9315 4.272C21.0941 4.31228 21.2385 4.40586 21.3418 4.5378C21.445 4.66974 21.5011 4.83246 21.5011 5C21.5011 5.16754 21.445 5.33026 21.3418 5.4622C21.2385 5.59414 21.0941 5.68772 20.9315 5.728L19.8955 5.986C18.9555 6.222 18.2215 6.956 17.9855 7.896L17.7275 8.932C17.6872 9.09463 17.5936 9.23908 17.4617 9.34233C17.3297 9.44558 17.167 9.50168 16.9995 9.50168C16.8319 9.50168 16.6692 9.44558 16.5373 9.34233C16.4053 9.23908 16.3117 9.09463 16.2715 8.932L16.0135 7.896C15.8981 7.43443 15.6594 7.0129 15.323 6.67648C14.9866 6.34005 14.565 6.10139 14.1035 5.986L13.0675 5.728C12.9048 5.68772 12.7604 5.59414 12.6571 5.4622C12.5539 5.33026 12.4978 5.16754 12.4978 5C12.4978 4.83246 12.5539 4.66974 12.6571 4.5378C12.7604 4.40586 12.9048 4.31228 13.0675 4.272L14.1035 4.014C14.565 3.89861 14.9866 3.65995 15.323 3.32352C15.6594 2.9871 15.8981 2.56557 16.0135 2.104L16.2715 1.068C16.3121 0.905686 16.4058 0.761609 16.5377 0.658686C16.6696 0.555764 16.8321 0.499907 16.9995 0.5ZM15.4995 14C15.657 13.9999 15.8105 14.0494 15.9383 14.1415C16.0661 14.2336 16.1617 14.3636 16.2115 14.513L16.6055 15.696C16.7555 16.143 17.1055 16.495 17.5535 16.644L18.7365 17.039C18.8854 17.089 19.0149 17.1845 19.1067 17.3121C19.1984 17.4397 19.2478 17.5929 19.2478 17.75C19.2478 17.9071 19.1984 18.0603 19.1067 18.1879C19.0149 18.3155 18.8854 18.411 18.7365 18.461L17.5535 18.856C17.1065 19.006 16.7545 19.356 16.6055 19.804L16.2105 20.987C16.1604 21.136 16.0649 21.2655 15.9373 21.3572C15.8098 21.4489 15.6566 21.4983 15.4995 21.4983C15.3423 21.4983 15.1892 21.4489 15.0616 21.3572C14.934 21.2655 14.8385 21.136 14.7885 20.987L14.3935 19.804C14.3198 19.5833 14.1958 19.3827 14.0313 19.2182C13.8667 19.0537 13.6662 18.9297 13.4455 18.856L12.2625 18.461C12.1135 18.411 11.984 18.3155 11.8923 18.1879C11.8005 18.0603 11.7512 17.9071 11.7512 17.75C11.7512 17.5929 11.8005 17.4397 11.8923 17.3121C11.984 17.1845 12.1135 17.089 12.2625 17.039L13.4455 16.644C13.8925 16.494 14.2445 16.144 14.3935 15.696L14.7885 14.513C14.8382 14.3637 14.9336 14.2339 15.0612 14.1418C15.1888 14.0497 15.3421 14.0001 15.4995 14Z" fill="#252E6A"/>
</svg>
